<?xml version="1.0" encoding="utf-8"?>
<!-- Generated by Mocodo 4.3.2 -->
<svg width="657" height="390" viewBox="0 0 657 390" xmlns="http://www.w3.org/2000/svg">
<rect x="0" y="0" width="657" height="390" fill="#ffffbf" stroke="none" stroke-width="0"/>

<!-- Association PLAYS -->
<g>
	<line x1="183" y1="77" x2="276" y2="77" stroke="#66c2a5" stroke-width="2"/>
	<line x1="362" y1="77" x2="276" y2="77" stroke="#66c2a5" stroke-width="2"/>
	<g>
		<path d="M289 52 a14 14 90 0 1 14 14 V77 h-54 V66 a14 14 90 0 1 14 -14" fill="#abdda4" stroke="#abdda4" stroke-width="0"/>
		<path d="M303 77 v11 a14 14 90 0 1 -14 14 H263 a14 14 90 0 1 -14 -14 V77 H54" fill="#e6f598" stroke="#e6f598" stroke-width="0"/>
		<rect x="249" y="52" width="54" height="50" fill="none" rx="14" stroke="#66c2a5" stroke-width="2"/>
		<line x1="249" y1="77" x2="303" y2="77" stroke="#66c2a5" stroke-width="1"/>
		<text x="257" y="69.75" fill="#000000" font-family="Verdana" font-size="12">PLAYS</text>
	</g>
	<text x="222" y="94" fill="#d53e4f" font-family="Verdana" font-size="12">0,N</text>
	<text x="308" y="69" fill="#d53e4f" font-family="Verdana" font-size="12">0,N</text>
</g>

<!-- Association AVAILABLE_ON -->
<g>
	<line x1="362" y1="77" x2="478" y2="77" stroke="#66c2a5" stroke-width="2"/>
	<line x1="606" y1="77" x2="478" y2="77" stroke="#66c2a5" stroke-width="2"/>
	<g>
		<path d="M518 52 a14 14 90 0 1 14 14 V77 h-108 V66 a14 14 90 0 1 14 -14" fill="#abdda4" stroke="#abdda4" stroke-width="0"/>
		<path d="M532 77 v11 a14 14 90 0 1 -14 14 H438 a14 14 90 0 1 -14 -14 V77 H108" fill="#e6f598" stroke="#e6f598" stroke-width="0"/>
		<rect x="424" y="52" width="108" height="50" fill="none" rx="14" stroke="#66c2a5" stroke-width="2"/>
		<line x1="424" y1="77" x2="532" y2="77" stroke="#66c2a5" stroke-width="1"/>
		<text x="431" y="69.75" fill="#000000" font-family="Verdana" font-size="12">AVAILABLE_ON</text>
		<text x="431" y="94.8" fill="#000000" font-family="Verdana" font-size="12">release_year</text>
	</g>
	<text x="394" y="69" fill="#d53e4f" font-family="Verdana" font-size="12">1,N</text>
	<text x="537" y="94" fill="#d53e4f" font-family="Verdana" font-size="12">1,N</text>
</g>

<!-- Association PUBLISHED_BY -->
<g>
	<line x1="362" y1="77" x2="183" y2="195" stroke="#66c2a5" stroke-width="2"/>
	<line x1="53" y1="195" x2="183" y2="195" stroke="#66c2a5" stroke-width="2"/>
	<g>
		<path d="M223 170 a14 14 90 0 1 14 14 V195 h-108 V184 a14 14 90 0 1 14 -14" fill="#abdda4" stroke="#abdda4" stroke-width="0"/>
		<path d="M237 195 v11 a14 14 90 0 1 -14 14 H143 a14 14 90 0 1 -14 -14 V195 H108" fill="#e6f598" stroke="#e6f598" stroke-width="0"/>
		<rect x="129" y="170" width="108" height="50" fill="none" rx="14" stroke="#66c2a5" stroke-width="2"/>
		<line x1="129" y1="195" x2="237" y2="195" stroke="#66c2a5" stroke-width="1"/>
		<text x="136" y="187.75" fill="#000000" font-family="Verdana" font-size="12">PUBLISHED_BY</text>
	</g>
	<text x="309" y="91.86" fill="#d53e4f" font-family="Verdana" font-size="12">1,1</text>
	<text x="102" y="212" fill="#d53e4f" font-family="Verdana" font-size="12">1,N</text>
</g>

<!-- Association SOLD_IN -->
<g>
	<line x1="362" y1="77" x2="362" y2="195" stroke="#66c2a5" stroke-width="2"/>
	<line x1="362" y1="313" x2="362" y2="195" stroke="#66c2a5" stroke-width="2"/>
	<g>
		<path d="M383 170 a14 14 90 0 1 14 14 V195 h-70 V184 a14 14 90 0 1 14 -14" fill="#abdda4" stroke="#abdda4" stroke-width="0"/>
		<path d="M397 195 v11 a14 14 90 0 1 -14 14 H341 a14 14 90 0 1 -14 -14 V195 H70" fill="#e6f598" stroke="#e6f598" stroke-width="0"/>
		<rect x="327" y="170" width="70" height="50" fill="none" rx="14" stroke="#66c2a5" stroke-width="2"/>
		<line x1="327" y1="195" x2="397" y2="195" stroke="#66c2a5" stroke-width="1"/>
		<text x="334" y="187.75" fill="#000000" font-family="Verdana" font-size="12">SOLD_IN</text>
	</g>
	<text x="367" y="136" fill="#d53e4f" font-family="Verdana" font-size="12">0,1</text>
	<text x="367" y="237" fill="#d53e4f" font-family="Verdana" font-size="12">1,1</text>
</g>

<!-- Association BELONGS_TO -->
<g>
	<line x1="362" y1="77" x2="478" y2="195" stroke="#66c2a5" stroke-width="2"/>
	<line x1="606" y1="195" x2="478" y2="195" stroke="#66c2a5" stroke-width="2"/>
	<g>
		<path d="M513 170 a14 14 90 0 1 14 14 V195 h-98 V184 a14 14 90 0 1 14 -14" fill="#abdda4" stroke="#abdda4" stroke-width="0"/>
		<path d="M527 195 v11 a14 14 90 0 1 -14 14 H443 a14 14 90 0 1 -14 -14 V195 H98" fill="#e6f598" stroke="#e6f598" stroke-width="0"/>
		<rect x="429" y="170" width="98" height="50" fill="none" rx="14" stroke="#66c2a5" stroke-width="2"/>
		<line x1="429" y1="195" x2="527" y2="195" stroke="#66c2a5" stroke-width="1"/>
		<text x="436" y="187.75" fill="#000000" font-family="Verdana" font-size="12">BELONGS_TO</text>
	</g>
	<text x="394" y="103.45" fill="#d53e4f" font-family="Verdana" font-size="12">1,1</text>
	<text x="548" y="212" fill="#d53e4f" font-family="Verdana" font-size="12">1,N</text>
</g>

<!-- Entity USERS -->
<g>
	<g>
		<rect x="149" y="9" width="68" height="25" fill="#fdae61" stroke="none" stroke-width="0" opacity="1"/>
		<rect x="149" y="34" width="68" height="111" fill="#fee08b" stroke="none" stroke-width="0" opacity="1"/>
		<rect x="149" y="9" width="68" height="136" fill="none" stroke="#f46d43" stroke-width="2" opacity="1"/>
		<line x1="149" y1="34" x2="217" y2="34" stroke="#f46d43" stroke-width="1"/>
	</g>
	<text x="162" y="26.75" fill="#000000" font-family="Verdana" font-size="12">USERS</text>
	<text x="154" y="51.8" fill="#000000" font-family="Verdana" font-size="12">id</text>
	<line x1="154" y1="54" x2="166" y2="54" stroke="#000000" stroke-width="1"/>
	<text x="154" y="68.8" fill="#000000" font-family="Verdana" font-size="12">pseudo</text>
	<text x="154" y="85.8" fill="#000000" font-family="Verdana" font-size="12">password</text>
	<text x="154" y="102.8" fill="#000000" font-family="Verdana" font-size="12">mail</text>
	<text x="154" y="119.8" fill="#000000" font-family="Verdana" font-size="12">consent</text>
	<text x="154" y="136.8" fill="#000000" font-family="Verdana" font-size="12">expiry</text>
</g>

<!-- Entity GAMES -->
<g>
	<g>
		<rect x="335" y="35" width="54" height="25" fill="#fdae61" stroke="none" stroke-width="0" opacity="1"/>
		<rect x="335" y="60" width="54" height="59" fill="#fee08b" stroke="none" stroke-width="0" opacity="1"/>
		<rect x="335" y="35" width="54" height="84" fill="none" stroke="#f46d43" stroke-width="2" opacity="1"/>
		<line x1="335" y1="60" x2="389" y2="60" stroke="#f46d43" stroke-width="1"/>
	</g>
	<text x="340" y="52.75" fill="#000000" font-family="Verdana" font-size="12">GAMES</text>
	<text x="340" y="77.8" fill="#000000" font-family="Verdana" font-size="12">id</text>
	<line x1="340" y1="80" x2="352" y2="80" stroke="#000000" stroke-width="1"/>
	<text x="340" y="94.8" fill="#000000" font-family="Verdana" font-size="12">name</text>
	<text x="340" y="111.8" fill="#000000" font-family="Verdana" font-size="12">rank</text>
</g>

<!-- Entity PLATFORMS -->
<g>
	<g>
		<rect x="564" y="43" width="84" height="25" fill="#fdae61" stroke="none" stroke-width="0" opacity="1"/>
		<rect x="564" y="68" width="84" height="43" fill="#fee08b" stroke="none" stroke-width="0" opacity="1"/>
		<rect x="564" y="43" width="84" height="68" fill="none" stroke="#f46d43" stroke-width="2" opacity="1"/>
		<line x1="564" y1="68" x2="648" y2="68" stroke="#f46d43" stroke-width="1"/>
	</g>
	<text x="569" y="60.75" fill="#000000" font-family="Verdana" font-size="12">PLATFORMS</text>
	<text x="569" y="85.8" fill="#000000" font-family="Verdana" font-size="12">id</text>
	<line x1="569" y1="88" x2="581" y2="88" stroke="#000000" stroke-width="1"/>
	<text x="569" y="102.8" fill="#000000" font-family="Verdana" font-size="12">name</text>
</g>

<!-- Entity PUBLISHERS -->
<g>
	<g>
		<rect x="9" y="161" width="88" height="25" fill="#fdae61" stroke="none" stroke-width="0" opacity="1"/>
		<rect x="9" y="186" width="88" height="43" fill="#fee08b" stroke="none" stroke-width="0" opacity="1"/>
		<rect x="9" y="161" width="88" height="68" fill="none" stroke="#f46d43" stroke-width="2" opacity="1"/>
		<line x1="9" y1="186" x2="97" y2="186" stroke="#f46d43" stroke-width="1"/>
	</g>
	<text x="14" y="178.75" fill="#000000" font-family="Verdana" font-size="12">PUBLISHERS</text>
	<text x="14" y="203.8" fill="#000000" font-family="Verdana" font-size="12">id</text>
	<line x1="14" y1="206" x2="26" y2="206" stroke="#000000" stroke-width="1"/>
	<text x="14" y="220.8" fill="#000000" font-family="Verdana" font-size="12">name</text>
</g>

<!-- Entity GENRES -->
<g>
	<g>
		<rect x="575" y="161" width="62" height="25" fill="#fdae61" stroke="none" stroke-width="0" opacity="1"/>
		<rect x="575" y="186" width="62" height="43" fill="#fee08b" stroke="none" stroke-width="0" opacity="1"/>
		<rect x="575" y="161" width="62" height="68" fill="none" stroke="#f46d43" stroke-width="2" opacity="1"/>
		<line x1="575" y1="186" x2="637" y2="186" stroke="#f46d43" stroke-width="1"/>
	</g>
	<text x="581" y="178.75" fill="#000000" font-family="Verdana" font-size="12">GENRES</text>
	<text x="580" y="203.8" fill="#000000" font-family="Verdana" font-size="12">id</text>
	<line x1="580" y1="206" x2="592" y2="206" stroke="#000000" stroke-width="1"/>
	<text x="580" y="220.8" fill="#000000" font-family="Verdana" font-size="12">name</text>
</g>

<!-- Entity SALES -->
<g>
	<g>
		<rect x="312" y="245" width="100" height="25" fill="#fdae61" stroke="none" stroke-width="0" opacity="1"/>
		<rect x="312" y="270" width="100" height="111" fill="#fee08b" stroke="none" stroke-width="0" opacity="1"/>
		<rect x="312" y="245" width="100" height="136" fill="none" stroke="#f46d43" stroke-width="2" opacity="1"/>
		<line x1="312" y1="270" x2="412" y2="270" stroke="#f46d43" stroke-width="1"/>
	</g>
	<text x="342" y="262.75" fill="#000000" font-family="Verdana" font-size="12">SALES</text>
	<text x="317" y="287.8" fill="#000000" font-family="Verdana" font-size="12">id</text>
	<line x1="317" y1="290" x2="329" y2="290" stroke="#000000" stroke-width="1"/>
	<text x="317" y="304.8" fill="#000000" font-family="Verdana" font-size="12">north_america</text>
	<text x="317" y="321.8" fill="#000000" font-family="Verdana" font-size="12">europe</text>
	<text x="317" y="338.8" fill="#000000" font-family="Verdana" font-size="12">japan</text>
	<text x="317" y="355.8" fill="#000000" font-family="Verdana" font-size="12">other</text>
	<text x="317" y="372.8" fill="#000000" font-family="Verdana" font-size="12">total</text>
</g>
</svg>