<?xml version="1.0" encoding="utf-8"?>
<!-- Generated by Mocodo 4.3.2 -->
<svg width="1330" height="237" viewBox="0 0 1330 237" xmlns="http://www.w3.org/2000/svg">
<rect x="0" y="0" width="1330" height="237" fill="#ffffbf" stroke="none" stroke-width="0"/>

<!-- Entity USERS -->
<g>
	<g>
		<rect x="41" y="17" width="154" height="25" fill="#fdae61" stroke="none" stroke-width="0" opacity="1"/>
		<rect x="41" y="42" width="154" height="111" fill="#fee08b" stroke="none" stroke-width="0" opacity="1"/>
		<rect x="41" y="17" width="154" height="136" fill="none" stroke="#f46d43" stroke-width="2" opacity="1"/>
		<line x1="41" y1="42" x2="195" y2="42" stroke="#f46d43" stroke-width="1"/>
	</g>
	<text x="97" y="34.75" fill="#000000" font-family="Verdana" font-size="12">USERS</text>
	<text x="46" y="59.8" fill="#000000" font-family="Verdana" font-size="12">id_user | INT(32)</text>
	<line x1="46" y1="62" x2="153" y2="62" stroke="#000000" stroke-width="1"/>
	<text x="46" y="76.8" fill="#000000" font-family="Verdana" font-size="12">pseudo | VARCHAR(20)</text>
	<text x="46" y="93.8" fill="#000000" font-family="Verdana" font-size="12">password | CHAR(60)</text>
	<text x="46" y="110.8" fill="#000000" font-family="Verdana" font-size="12">mail | CHAR(64)</text>
	<text x="46" y="127.8" fill="#000000" font-family="Verdana" font-size="12">consent | Boolean</text>
	<text x="46" y="144.8" fill="#000000" font-family="Verdana" font-size="12">expiry | Date</text>
</g>

<!-- Entity GAMES -->
<g>
	<g>
		<rect x="259" y="43" width="152" height="25" fill="#fdae61" stroke="none" stroke-width="0" opacity="1"/>
		<rect x="259" y="68" width="152" height="59" fill="#fee08b" stroke="none" stroke-width="0" opacity="1"/>
		<rect x="259" y="43" width="152" height="84" fill="none" stroke="#f46d43" stroke-width="2" opacity="1"/>
		<line x1="259" y1="68" x2="411" y2="68" stroke="#f46d43" stroke-width="1"/>
	</g>
	<text x="313" y="60.75" fill="#000000" font-family="Verdana" font-size="12">GAMES</text>
	<text x="264" y="85.8" fill="#000000" font-family="Verdana" font-size="12">id_game | INT(32)</text>
	<line x1="264" y1="88" x2="378" y2="88" stroke="#000000" stroke-width="1"/>
	<text x="264" y="102.8" fill="#000000" font-family="Verdana" font-size="12">name | VARCHAR(100)</text>
	<text x="264" y="119.8" fill="#000000" font-family="Verdana" font-size="12">rank | INT(32)</text>
</g>

<!-- Entity PLATFORMS -->
<g>
	<g>
		<rect x="475" y="51" width="144" height="25" fill="#fdae61" stroke="none" stroke-width="0" opacity="1"/>
		<rect x="475" y="76" width="144" height="43" fill="#fee08b" stroke="none" stroke-width="0" opacity="1"/>
		<rect x="475" y="51" width="144" height="68" fill="none" stroke="#f46d43" stroke-width="2" opacity="1"/>
		<line x1="475" y1="76" x2="619" y2="76" stroke="#f46d43" stroke-width="1"/>
	</g>
	<text x="510" y="68.75" fill="#000000" font-family="Verdana" font-size="12">PLATFORMS</text>
	<text x="480" y="93.8" fill="#000000" font-family="Verdana" font-size="12">id_platform | INT(32)</text>
	<line x1="480" y1="96" x2="612" y2="96" stroke="#000000" stroke-width="1"/>
	<text x="480" y="110.8" fill="#000000" font-family="Verdana" font-size="12">name | VARCHAR(30)</text>
</g>

<!-- Entity PUBLISHERS -->
<g>
	<g>
		<rect x="683" y="51" width="152" height="25" fill="#fdae61" stroke="none" stroke-width="0" opacity="1"/>
		<rect x="683" y="76" width="152" height="43" fill="#fee08b" stroke="none" stroke-width="0" opacity="1"/>
		<rect x="683" y="51" width="152" height="68" fill="none" stroke="#f46d43" stroke-width="2" opacity="1"/>
		<line x1="683" y1="76" x2="835" y2="76" stroke="#f46d43" stroke-width="1"/>
	</g>
	<text x="720" y="68.75" fill="#000000" font-family="Verdana" font-size="12">PUBLISHERS</text>
	<text x="688" y="93.8" fill="#000000" font-family="Verdana" font-size="12">id_publisher | INT(32)</text>
	<line x1="688" y1="96" x2="824" y2="96" stroke="#000000" stroke-width="1"/>
	<text x="688" y="110.8" fill="#000000" font-family="Verdana" font-size="12">name | VARCHAR(100)</text>
</g>

<!-- Entity GENRES -->
<g>
	<g>
		<rect x="899" y="51" width="144" height="25" fill="#fdae61" stroke="none" stroke-width="0" opacity="1"/>
		<rect x="899" y="76" width="144" height="43" fill="#fee08b" stroke="none" stroke-width="0" opacity="1"/>
		<rect x="899" y="51" width="144" height="68" fill="none" stroke="#f46d43" stroke-width="2" opacity="1"/>
		<line x1="899" y1="76" x2="1043" y2="76" stroke="#f46d43" stroke-width="1"/>
	</g>
	<text x="946" y="68.75" fill="#000000" font-family="Verdana" font-size="12">GENRES</text>
	<text x="904" y="93.8" fill="#000000" font-family="Verdana" font-size="12">id_genre | INT(32)</text>
	<line x1="904" y1="96" x2="1019" y2="96" stroke="#000000" stroke-width="1"/>
	<text x="904" y="110.8" fill="#000000" font-family="Verdana" font-size="12">name | VARCHAR(20)</text>
</g>

<!-- Entity SALES -->
<g>
	<g>
		<rect x="1107" y="9" width="182" height="25" fill="#fdae61" stroke="none" stroke-width="0" opacity="1"/>
		<rect x="1107" y="34" width="182" height="127" fill="#fee08b" stroke="none" stroke-width="0" opacity="1"/>
		<rect x="1107" y="9" width="182" height="152" fill="none" stroke="#f46d43" stroke-width="2" opacity="1"/>
		<line x1="1107" y1="34" x2="1289" y2="34" stroke="#f46d43" stroke-width="1"/>
	</g>
	<text x="1178" y="26.75" fill="#000000" font-family="Verdana" font-size="12">SALES</text>
	<text x="1112" y="51.8" fill="#000000" font-family="Verdana" font-size="12">id_sale | INT(32)</text>
	<line x1="1112" y1="54" x2="1217" y2="54" stroke="#000000" stroke-width="1"/>
	<text x="1112" y="68.8" fill="#000000" font-family="Verdana" font-size="12">north_america | FLOAT(4.2)</text>
	<text x="1112" y="85.8" fill="#000000" font-family="Verdana" font-size="12">europe | FLOAT(4.2)</text>
	<text x="1112" y="102.8" fill="#000000" font-family="Verdana" font-size="12">japan | FLOAT(4.2)</text>
	<text x="1112" y="119.8" fill="#000000" font-family="Verdana" font-size="12">other | FLOAT(4.2)</text>
	<text x="1112" y="136.8" fill="#000000" font-family="Verdana" font-size="12">total | FLOAT(4.2)</text>
	<text x="1112" y="153.8" fill="#000000" font-family="Verdana" font-size="12">id_user | INT(32)</text>
</g>

<!-- Entity GAMES_USERS -->
<g>
	<g>
		<rect x="485" y="152" width="124" height="25" fill="#fdae61" stroke="none" stroke-width="0" opacity="1"/>
		<rect x="485" y="177" width="124" height="43" fill="#fee08b" stroke="none" stroke-width="0" opacity="1"/>
		<rect x="485" y="152" width="124" height="68" fill="none" stroke="#f46d43" stroke-width="2" opacity="1"/>
		<line x1="485" y1="177" x2="609" y2="177" stroke="#f46d43" stroke-width="1"/>
	</g>
	<text x="502" y="169.75" fill="#000000" font-family="Verdana" font-size="12">GAMES&#45;USERS</text>
	<text x="490" y="194.8" fill="#000000" font-family="Verdana" font-size="12">id_game | INT(32)</text>
	<text x="490" y="211.8" fill="#000000" font-family="Verdana" font-size="12">id_user | INT(32)</text>
</g>

<!-- Entity GAMES_PLATFORMS -->
<g>
	<g>
		<rect x="684" y="144" width="150" height="25" fill="#fdae61" stroke="none" stroke-width="0" opacity="1"/>
		<rect x="684" y="169" width="150" height="59" fill="#fee08b" stroke="none" stroke-width="0" opacity="1"/>
		<rect x="684" y="144" width="150" height="84" fill="none" stroke="#f46d43" stroke-width="2" opacity="1"/>
		<line x1="684" y1="169" x2="834" y2="169" stroke="#f46d43" stroke-width="1"/>
	</g>
	<text x="698" y="161.75" fill="#000000" font-family="Verdana" font-size="12">GAMES&#45;PLATFORMS</text>
	<text x="689" y="186.8" fill="#000000" font-family="Verdana" font-size="12">id_publisher | INT(32)</text>
	<text x="689" y="203.8" fill="#000000" font-family="Verdana" font-size="12">id_platform | INT(32)</text>
	<text x="689" y="220.8" fill="#000000" font-family="Verdana" font-size="12">release_year | INT(16)</text>
</g>
</svg>